<?xml version="1.0" standalone="no"?>
<!DOCTYPE svg PUBLIC "-//W3C//DTD SVG 20010904//EN"
 "http://www.w3.org/TR/2001/REC-SVG-20010904/DTD/svg10.dtd">
<svg version="1.0" xmlns="http://www.w3.org/2000/svg"
 width="1280.000000pt" height="1280.000000pt" viewBox="0 0 1280.000000 1280.000000"
 preserveAspectRatio="xMidYMid meet">
<g transform="translate(0.000000,1280.000000) scale(0.100000,-0.100000)"
fill="#000000" stroke="none">
<path d="M5945 11828 c-11 -36 -819 -3707 -841 -3826 -11 -58 -14 -96 -8 -101
5 -6 94 -3 234 9 124 10 267 21 318 24 l92 7 0 -35 c0 -54 -15 -128 -320
-1531 -339 -1566 -312 -1434 -304 -1447 4 -6 114 -8 304 -6 164 2 301 0 305
-4 13 -12 -24 -207 -305 -1588 -316 -1555 -480 -2378 -480 -2403 0 -9 6 -17
14 -17 8 0 88 176 211 467 236 558 1545 3696 1600 3835 42 107 41 134 -3 124
-35 -7 -452 -21 -452 -14 0 29 126 418 471 1458 497 1496 460 1381 453 1391
-3 5 -149 9 -324 9 -175 0 -321 3 -323 8 -11 16 73 299 536 1807 560 1824 560
1822 552 1835 -10 16 -1725 13 -1730 -2z"/>
</g>
</svg>
